<?xml version="1.0" encoding="UTF-8" standalone="no"?>
<!-- Created with Inkscape (http://www.inkscape.org/) -->

<svg
   version="1.1"
   id="svg2"
   width="1056"
   height="816"
   viewBox="0 0 1056 816"
   sodipodi:docname="notoil_logo (1).ai"
   xmlns:inkscape="http://www.inkscape.org/namespaces/inkscape"
   xmlns:sodipodi="http://sodipodi.sourceforge.net/DTD/sodipodi-0.dtd"
   xmlns="http://www.w3.org/2000/svg"
   xmlns:svg="http://www.w3.org/2000/svg">
  <defs
     id="defs6">
    <clipPath
       clipPathUnits="userSpaceOnUse"
       id="clipPath20">
      <path
         d="M 0,612 H 792 V 0 H 0 Z"
         id="path18" />
    </clipPath>
  </defs>
  <sodipodi:namedview
     id="namedview4"
     pagecolor="#ffffff"
     bordercolor="#000000"
     borderopacity="0.25"
     inkscape:showpageshadow="2"
     inkscape:pageopacity="0.0"
     inkscape:pagecheckerboard="0"
     inkscape:deskcolor="#d1d1d1" />
  <g
     id="g8"
     inkscape:groupmode="layer"
     inkscape:label="notoil_logo (1)"
     transform="matrix(1.3333333,0,0,-1.3333333,0,816)">
    <g
       id="g10"
       transform="translate(330.0313,166.7188)">
      <path
         d="M 0,0 H -13.641 L -38.219,26.406 V 0 h -14.187 v 47.072 l 13.609,0.006 24.578,-26.39 V 47.094 H 0 Z"
         style="fill:#231f20;fill-opacity:1;fill-rule:nonzero;stroke:none"
         id="path12" />
    </g>
    <g
       id="g14">
      <g
         id="g16"
         clip-path="url(#clipPath20)">
        <g
           id="g22"
           transform="translate(377.2261,190.3105)">
          <path
             d="m 0,0 c 0,3.645 -1.548,6.602 -4.649,8.87 -2.67,1.952 -5.983,2.929 -9.941,2.929 -4.336,0 -7.865,-1.113 -10.594,-3.338 C -27.91,6.237 -29.271,3.416 -29.271,0 c 0,-3.529 1.335,-6.379 4.004,-8.543 2.67,-2.169 6.225,-3.252 10.677,-3.252 4.419,0 7.954,1.091 10.611,3.272 C -1.329,-6.343 0,-3.5 0,0 m 14.469,-0.001 c 0,-7.426 -3.045,-13.436 -9.134,-18.025 -5.346,-4.006 -11.979,-6.01 -19.905,-6.01 -8.012,0 -14.691,2.021 -20.034,6.07 -6.093,4.592 -9.137,10.578 -9.137,17.965 0,7.264 3.087,13.23 9.261,17.903 5.425,4.09 12.063,6.134 19.91,6.134 7.884,0 14.498,-2.044 19.841,-6.134 6.135,-4.673 9.198,-10.639 9.198,-17.903"
             style="fill:#231f20;fill-opacity:1;fill-rule:nonzero;stroke:none"
             id="path24" />
        </g>
        <g
           id="g26"
           transform="translate(457.8467,200.25)">
          <path
             d="m 0,0 -18.815,-0.016 -0.016,-33.515 -14.202,-0.01 V 0 l -18.826,-0.021 v 13.584 l 51.859,0 z"
             style="fill:#231f20;fill-opacity:1;fill-rule:nonzero;stroke:none"
             id="path28" />
        </g>
        <g
           id="g30"
           transform="translate(499.6133,190.3105)">
          <path
             d="m 0,0 c 0,3.659 -1.558,6.628 -4.669,8.905 -2.679,1.959 -6.008,2.94 -9.983,2.94 -4.35,0 -7.896,-1.117 -10.632,-3.351 C -28.021,6.262 -29.389,3.43 -29.389,0 c 0,-3.543 1.339,-6.403 4.02,-8.577 2.679,-2.176 6.249,-3.264 10.717,-3.264 4.436,0 7.988,1.096 10.653,3.284 C -1.334,-6.368 0,-3.514 0,0 m 14.467,-0.001 c 0,-7.439 -3.051,-13.462 -9.155,-18.061 -5.354,-4.013 -11.999,-6.021 -19.945,-6.021 -8.027,0 -14.72,2.026 -20.068,6.082 -6.11,4.602 -9.16,10.599 -9.16,18 0,7.277 3.093,13.257 9.281,17.939 5.434,4.096 12.089,6.145 19.947,6.145 7.904,0 14.53,-2.049 19.879,-6.145 6.15,-4.682 9.221,-10.662 9.221,-17.939"
             style="fill:#231f20;fill-opacity:1;fill-rule:nonzero;stroke:none"
             id="path32" />
        </g>
        <path
           d="m 531.688,166.719 h -14.203 v 47.094 h 14.203 z"
           style="fill:#231f20;fill-opacity:1;fill-rule:nonzero;stroke:none"
           id="path34" />
        <g
           id="g36"
           transform="translate(581.8125,166.7188)">
          <path
             d="m 0,0 h -44.625 v 47.094 h 14.203 V 13.547 L 0,13.563 Z"
             style="fill:#231f20;fill-opacity:1;fill-rule:nonzero;stroke:none"
             id="path38" />
        </g>
        <g
           id="g40"
           transform="translate(291.1221,298.0068)">
          <path
             d="m 0,0 c -16.51,19.775 -33.078,43.381 -48.299,66.602 -30.222,46.318 -54.207,90.816 -58.967,99.779 l -9.32,17.514 19.732,-1.95 c 20.094,-1.968 159.278,-16.164 251.913,-37.123 0.578,-0.131 1.125,-0.256 1.683,-0.383 L 127.281,138.793 161.533,50.287 -41.492,131.998 16.832,-18.781 C 11.283,-13.078 5.635,-6.791 0,0"
             style="fill:#231f20;fill-opacity:1;fill-rule:nonzero;stroke:none"
             id="path42" />
        </g>
        <g
           id="g44"
           transform="translate(426.8857,232.4756)">
          <path
             d="m 0,0 c -32.756,0 -63.563,7.734 -89.1,22.137 -1.851,1.049 -3.771,2.279 -5.736,3.617 l 41.791,8.529 -29.771,76.99 L 107.693,34.59 C 80.598,12.803 41.619,-0.008 0,0"
             style="fill:#231f20;fill-opacity:1;fill-rule:nonzero;stroke:none"
             id="path46" />
        </g>
        <g
           id="g48"
           transform="translate(571.7979,337.4893)">
          <path
             d="M 0,0 V -0.256 C -0.039,-22.83 -9.83,-44.703 -28.955,-63.166 L -90.676,96.387 C -75.732,91.975 -63.549,87.406 -55.602,82.893 -23.074,64.512 -3.404,37.025 -0.42,7.926 h 0.006 C -0.139,5.342 0,2.76 0.006,0.188 0.006,0.119 0,0.061 0,0"
             style="fill:#231f20;fill-opacity:1;fill-rule:nonzero;stroke:none"
             id="path50" />
        </g>
      </g>
    </g>
  </g>
</svg>
